<?xml version="1.0" standalone="no"?>
<!DOCTYPE svg PUBLIC "-//W3C//DTD SVG 20010904//EN"
 "http://www.w3.org/TR/2001/REC-SVG-20010904/DTD/svg10.dtd">
<svg version="1.0" xmlns="http://www.w3.org/2000/svg"
 width="222.000000pt" height="222.000000pt" viewBox="0 0 222.000000 222.000000"
 preserveAspectRatio="xMidYMid meet">
<metadata>
Created by potrace 1.11, written by Peter Selinger 2001-2013
</metadata>
<g transform="translate(0.000000,222.000000) scale(0.100000,-0.100000)"
fill="#000000" stroke="none">
<path d="M0 2159 c0 -41 5 -65 15 -76 14 -14 14 -17 0 -32 -8 -10 -15 -21 -15
-26 0 -5 9 1 20 13 26 27 36 28 43 2 5 -18 8 -19 34 -8 15 7 34 19 42 26 19
18 35 10 39 -21 4 -32 22 -37 22 -6 0 11 5 30 12 42 11 21 11 21 19 2 6 -15 8
-16 8 -4 1 18 31 48 31 31 0 -6 -4 -14 -10 -17 -20 -12 -10 -27 14 -21 18 4
28 1 35 -11 10 -17 10 -17 11 0 0 9 6 17 14 17 9 0 12 -7 9 -20 -6 -23 15 -28
23 -5 4 8 15 15 25 15 11 0 16 -5 13 -14 -3 -7 1 -20 9 -27 8 -8 16 -21 19
-29 6 -20 -61 -106 -80 -102 -13 3 -14 1 -4 -11 10 -12 8 -17 -10 -29 -13 -9
-38 -19 -56 -22 -17 -4 -32 -12 -32 -16 0 -5 19 -3 41 5 23 8 43 15 45 15 2 0
-6 -19 -16 -42 -23 -51 -25 -89 -6 -126 8 -15 12 -43 11 -63 -4 -52 -36 -179
-46 -185 -10 -6 -11 -6 -111 -30 -67 -16 -84 -36 -28 -32 16 1 26 6 24 10 -3
4 6 8 20 8 14 0 28 5 31 10 3 6 19 10 35 10 16 0 32 -4 35 -10 3 -6 -4 -10
-16 -10 -22 0 -22 -1 -4 -13 13 -10 18 -28 19 -65 1 -29 4 -52 9 -52 4 0 7 -7
7 -15 0 -8 -9 -15 -20 -15 -11 0 -20 -4 -20 -10 0 -5 10 -9 23 -7 20 2 22 -2
22 -43 0 -25 4 -50 7 -56 4 -6 12 -91 17 -190 12 -213 36 -307 108 -418 38
-57 160 -206 199 -241 40 -37 105 -127 101 -139 -3 -8 -23 -24 -44 -35 -21
-11 -53 -31 -72 -45 l-35 -26 817 0 817 0 0 110 0 110 -79 80 c-43 44 -87 80
-98 80 -21 0 -53 20 -104 68 -20 18 -56 46 -80 61 -24 16 -56 41 -70 57 -31
34 -46 98 -28 120 9 11 9 21 0 40 -16 36 -14 64 5 64 15 0 16 12 11 103 -3 56
-13 126 -22 154 -13 43 -14 61 -5 94 14 49 6 87 -25 134 -15 21 -26 54 -28 83
-2 26 -9 56 -15 68 -6 11 -14 65 -17 119 -8 113 -24 180 -57 233 -13 21 -22
41 -20 45 1 5 -2 6 -7 3 -5 -4 -13 -1 -17 5 -3 6 -1 15 6 19 9 5 9 9 1 14 -6
4 -11 12 -11 17 0 6 5 7 10 4 6 -3 10 -1 10 5 0 7 -7 10 -15 6 -9 -3 -26 4
-40 16 -20 18 -23 24 -12 37 9 12 9 13 -1 7 -7 -4 -19 0 -28 8 -9 9 -20 14
-25 10 -5 -3 -9 -2 -8 3 4 17 -14 43 -25 36 -8 -5 -8 -3 1 8 6 8 9 27 6 42 -4
20 -8 25 -14 16 -4 -7 -3 -19 2 -25 7 -8 6 -14 -1 -19 -5 -3 -11 -4 -11 -1 -1
3 -2 9 -3 14 -4 20 -52 72 -67 72 -10 0 -21 5 -25 12 -5 8 -2 9 9 5 9 -3 19
-2 23 4 4 7 10 7 18 0 9 -8 13 -7 13 2 0 6 4 20 8 29 5 13 2 17 -14 15 -11 0
-18 -3 -16 -6 10 -10 -17 -29 -34 -24 -10 3 -22 0 -25 -6 -8 -12 -36 -3 -36
11 0 6 7 7 16 4 8 -3 13 -2 10 2 -3 5 21 17 52 28 51 16 54 19 28 22 -16 2
-39 -1 -50 -7 -63 -31 -101 -41 -135 -35 l-36 7 39 14 c22 7 48 11 58 7 9 -3
24 -1 33 3 8 5 -135 9 -320 9 -239 1 -332 -2 -328 -10 5 -7 2 -7 -8 0 -10 8
-107 12 -316 13 l-303 1 0 -61z m51 35 c-19 -8 -36 -12 -39 -9 -6 6 37 24 58
24 8 0 0 -6 -19 -15z m301 -6 c-7 -7 -12 -8 -12 -2 0 14 12 26 19 19 2 -3 -1
-11 -7 -17z m478 12 c13 -9 13 -10 0 -9 -8 1 -26 5 -40 9 l-25 8 25 1 c14 0
32 -4 40 -9z m327 4 c-3 -3 -12 -4 -19 -1 -8 3 -5 6 6 6 11 1 17 -2 13 -5z
m-622 -24 c-3 -5 -18 -10 -33 -9 l-27 1 25 8 c35 11 42 11 35 0z m56 -3 c-1
-12 -15 -9 -19 4 -3 6 1 10 8 8 6 -3 11 -8 11 -12z m167 1 c-3 -7 -14 -14 -26
-14 -20 -2 -20 -1 -2 3 11 2 18 9 15 14 -4 5 -1 9 5 9 7 0 10 -6 8 -12z m-587
-21 c-6 -8 -7 -18 -3 -22 4 -5 1 -5 -7 0 -7 4 -16 3 -21 -4 -5 -9 -11 -7 -21
5 -12 16 -12 17 3 11 10 -4 23 0 30 8 16 18 34 20 19 2z m129 -2 c0 -8 -4 -15
-10 -15 -5 0 -10 7 -10 15 0 8 5 15 10 15 6 0 10 -7 10 -15z m40 11 c0 -3 -4
-8 -10 -11 -5 -3 -10 -1 -10 4 0 6 5 11 10 11 6 0 10 -2 10 -4z m40 -6 c0 -5
-4 -10 -10 -10 -5 0 -10 5 -10 10 0 6 5 10 10 10 6 0 10 -4 10 -10z m52 -12
c17 17 23 15 36 -13 17 -38 14 -44 -7 -15 -16 20 -21 22 -35 11 -9 -7 -16 -11
-16 -8 0 3 -3 14 -6 24 -5 15 -4 15 5 3 8 -12 13 -12 23 -2z m142 -9 c-6 -11
29 -12 40 -2 3 4 12 8 19 9 7 1 20 5 30 9 11 5 17 2 17 -7 0 -7 -8 -15 -17
-16 -10 -1 -36 -5 -58 -8 -36 -7 -38 -8 -15 -14 24 -7 23 -8 -17 -25 -24 -9
-43 -21 -43 -25 0 -4 -8 -7 -17 -6 -10 0 -17 -5 -15 -12 1 -8 -2 -11 -8 -7 -6
3 -14 -4 -19 -17 -6 -13 -10 -17 -10 -10 -1 7 -9 12 -18 10 -13 -2 -18 4 -18
22 0 14 -4 31 -9 38 -11 17 -1 26 20 18 9 -3 14 -12 11 -20 -7 -17 26 -27 44
-14 11 8 10 9 -3 4 -22 -7 -24 10 -2 18 8 3 13 10 10 15 -7 11 22 37 31 28 3
-4 -2 -18 -11 -32 -9 -14 -12 -25 -7 -25 5 0 13 5 16 10 3 6 16 11 28 11 17 1
18 2 5 6 -20 5 -25 23 -7 23 6 0 9 9 6 19 -3 14 -1 18 9 14 8 -3 11 -9 8 -14z
m-372 -19 c-2 -16 -8 -30 -13 -30 -5 0 -6 7 -4 15 3 8 7 22 10 30 8 25 12 17
7 -15z m298 26 c0 -3 -4 -8 -10 -11 -5 -3 -10 -1 -10 4 0 6 5 11 10 11 6 0 10
-2 10 -4z m-413 -28 c-3 -8 -6 -5 -6 6 -1 11 2 17 5 13 3 -3 4 -12 1 -19z
m230 -25 c-3 -10 -5 -4 -5 12 0 17 2 24 5 18 2 -7 2 -21 0 -30z m83 21 c0 -8
-32 -33 -43 -34 -4 0 -2 9 5 20 12 19 38 28 38 14z m-330 -29 c0 -8 -4 -15
-10 -15 -5 0 -10 7 -10 15 0 8 5 15 10 15 6 0 10 -7 10 -15z"/>
<path d="M445 2040 c3 -5 8 -10 11 -10 2 0 4 5 4 10 0 6 -5 10 -11 10 -5 0 -7
-4 -4 -10z"/>
<path d="M1424 2205 c-21 -16 -3 -21 24 -6 9 5 26 5 37 0 19 -7 19 -8 -2 -8
-13 -1 -23 -6 -23 -11 0 -7 13 -8 35 -4 25 4 35 3 35 -6 0 -10 3 -10 15 0 13
10 15 9 16 -11 0 -22 1 -23 9 -4 5 11 9 29 9 40 1 19 -5 21 -68 22 -46 1 -75
-3 -87 -12z"/>
<path d="M1593 2193 c-1 -16 1 -21 4 -13 3 8 10 21 16 28 6 8 5 12 -5 12 -8 0
-14 -11 -15 -27z"/>
<path d="M1708 2213 c7 -3 16 -2 19 1 4 3 -2 6 -13 5 -11 0 -14 -3 -6 -6z"/>
<path d="M1790 2209 c0 -5 9 -9 19 -9 11 0 28 -3 38 -6 17 -5 17 -5 0 6 -24
15 -57 21 -57 9z"/>
<path d="M1762 2190 c0 -14 2 -19 5 -12 2 6 2 18 0 25 -3 6 -5 1 -5 -13z"/>
<path d="M1910 2199 c0 -5 5 -7 10 -4 6 3 10 8 10 11 0 2 -4 4 -10 4 -5 0 -10
-5 -10 -11z"/>
<path d="M1950 2200 c0 -5 5 -10 10 -10 6 0 10 5 10 10 0 6 -4 10 -10 10 -5 0
-10 -4 -10 -10z"/>
<path d="M1630 2190 c0 -5 9 -10 21 -10 11 0 17 5 14 10 -3 6 -13 10 -21 10
-8 0 -14 -4 -14 -10z"/>
<path d="M1801 2180 c0 -8 4 -22 9 -30 12 -18 12 -2 0 25 -6 13 -9 15 -9 5z"/>
<path d="M1415 2170 c3 -5 11 -10 16 -10 6 0 7 5 4 10 -3 6 -11 10 -16 10 -6
0 -7 -4 -4 -10z"/>
<path d="M1410 2130 c0 -6 7 -10 15 -10 8 0 15 2 15 4 0 2 -7 6 -15 10 -8 3
-15 1 -15 -4z"/>
<path d="M2165 2075 c-40 -14 -40 -14 -5 -8 19 3 42 9 50 14 22 12 1 9 -45 -6z"/>
<path d="M211 2028 c0 -20 3 -27 7 -18 4 8 13 15 20 16 6 1 21 2 33 3 12 0 17
6 13 12 -3 6 -14 9 -24 6 -9 -2 -25 0 -34 5 -13 8 -16 4 -15 -24z"/>
<path d="M2068 2043 c7 -3 16 -2 19 1 4 3 -2 6 -13 5 -11 0 -14 -3 -6 -6z"/>
<path d="M140 2016 c0 -2 7 -6 15 -10 8 -3 15 -1 15 4 0 6 -7 10 -15 10 -8 0
-15 -2 -15 -4z"/>
<path d="M0 1975 c0 -8 3 -15 8 -15 4 0 24 -4 44 -9 27 -6 35 -6 32 4 -3 7
-15 10 -30 7 -13 -2 -24 0 -24 6 0 5 -7 12 -15 16 -9 3 -15 0 -15 -9z"/>
<path d="M1865 1980 c-13 -6 -15 -9 -5 -9 8 0 22 4 30 9 18 12 2 12 -25 0z"/>
<path d="M136 1926 c10 -8 21 -12 24 -10 5 6 -21 24 -34 24 -6 0 -1 -6 10 -14z"/>
<path d="M273 1903 c8 -13 57 -23 57 -12 0 5 -6 9 -14 9 -8 0 -22 3 -32 7 -11
4 -15 3 -11 -4z"/>
<path d="M215 1800 c-3 -6 1 -7 9 -4 18 7 21 14 7 14 -6 0 -13 -4 -16 -10z"/>
<path d="M195 1349 c-8 -12 36 -22 47 -11 6 6 0 11 -17 14 -14 3 -28 2 -30 -3z"/>
<path d="M212 1223 c2 -10 12 -18 23 -18 11 0 21 8 23 18 3 13 -3 17 -23 17
-20 0 -26 -4 -23 -17z"/>
<path d="M2198 1043 c7 -3 16 -2 19 1 4 3 -2 6 -13 5 -11 0 -14 -3 -6 -6z"/>
<path d="M2145 1030 c3 -5 15 -10 26 -10 11 0 17 5 14 10 -3 6 -15 10 -26 10
-11 0 -17 -4 -14 -10z"/>
<path d="M2080 1020 c0 -5 10 -10 23 -10 18 0 19 2 7 10 -19 13 -30 13 -30 0z"/>
<path d="M2028 1003 c6 -2 18 -2 25 0 6 3 1 5 -13 5 -14 0 -19 -2 -12 -5z"/>
<path d="M2170 1000 c8 -5 20 -10 25 -10 6 0 3 5 -5 10 -8 5 -19 10 -25 10 -5
0 -3 -5 5 -10z"/>
<path d="M1968 993 c6 -2 18 -2 25 0 6 3 1 5 -13 5 -14 0 -19 -2 -12 -5z"/>
<path d="M2117 989 c7 -7 15 -10 18 -7 3 3 -2 9 -12 12 -14 6 -15 5 -6 -5z"/>
<path d="M1908 983 c6 -2 18 -2 25 0 6 3 1 5 -13 5 -14 0 -19 -2 -12 -5z"/>
<path d="M2045 980 c3 -5 16 -10 28 -9 21 0 21 1 2 9 -28 12 -37 12 -30 0z"/>
<path d="M1984 969 c-3 -5 6 -9 20 -9 31 0 34 6 6 13 -11 3 -23 1 -26 -4z"/>
<path d="M390 272 c0 -18 5 -32 10 -32 6 0 8 11 4 28 -10 39 -14 40 -14 4z"/>
</g>
</svg>
